# xmcd
#
# Track frame offsets: 
#        150
#        11083
#        18597
#        36461
#        56333
#        73872
#        90744
#        112683
#        128771
#        153495
#        169518
#
# Disc length: 2489 seconds
#
# Revision: 0
# Processed by: cddbd v1.5.2PL0 Copyright (c) Steve Scherf et al.
# Submitted via: ExactAudioCopy v0.99pb5
#
DISCID=8809b70b
DTITLE=Shelby Lynne - Tears, Lies and Alibis {Barnes and Noble Exclusive
DTITLE=}
DYEAR=2010
DGENRE=Country
TTITLE0=Rains Came
TTITLE1=Why Didn't You Call Me
TTITLE2=Like A Fool
TTITLE3=Alibi
TTITLE4=Something To Be Said About Airstreams
TTITLE5=Family Tree
TTITLE6=Loser Dreamer
TTITLE7=Old #7
TTITLE8=Old Dog
TTITLE9=Home Sweet Home
TTITLE10=Don't You Know
EXTD=
EXTT0=
EXTT1=
EXTT2=
EXTT3=
EXTT4=
EXTT5=
EXTT6=
EXTT7=
EXTT8=
EXTT9=
EXTT10=
PLAYORDER=
